<mxfile host="app.diagrams.net" agent="Mozilla/5.0 (Windows NT 10.0; Win64; x64) AppleWebKit/537.36 (KHTML, like Gecko) Chrome/137.0.0.0 Safari/537.36" version="27.1.6">
  <diagram name="Page-1" id="-1wgVbxz4AsincjsyzW6">
    <mxGraphModel dx="524" dy="301" grid="1" gridSize="10" guides="1" tooltips="1" connect="1" arrows="1" fold="1" page="1" pageScale="1" pageWidth="827" pageHeight="1169" background="light-dark(#ffffff, #ffffff)" math="0" shadow="0">
      <root>
        <mxCell id="0" />
        <mxCell id="1" parent="0" />
        <mxCell id="IKd1nYxQMQXhkdpDBxoq-24" value="&lt;font style=&quot;color: light-dark(rgb(0, 0, 0), rgb(0, 0, 0));&quot;&gt;Registration&lt;/font&gt;" style="ellipse;whiteSpace=wrap;html=1;strokeColor=light-dark(#000000,#000000);fontColor=#FEFAE0;fillColor=light-dark(#F59E0B,#F59E0B);" vertex="1" parent="1">
          <mxGeometry x="343" y="160" width="140" height="70" as="geometry" />
        </mxCell>
        <mxCell id="IKd1nYxQMQXhkdpDBxoq-25" value="&lt;font style=&quot;color: light-dark(rgb(0, 0, 0), rgb(0, 0, 0));&quot;&gt;Purchase Products&lt;/font&gt;" style="ellipse;whiteSpace=wrap;html=1;strokeColor=light-dark(#000000,#000000);fontColor=#FEFAE0;fillColor=light-dark(#F59E0B,#F59E0B);" vertex="1" parent="1">
          <mxGeometry x="343" y="520" width="140" height="70" as="geometry" />
        </mxCell>
        <mxCell id="IKd1nYxQMQXhkdpDBxoq-26" value="&lt;font style=&quot;color: light-dark(rgb(0, 0, 0), rgb(0, 0, 0));&quot;&gt;Manage Custom Orders&lt;/font&gt;" style="ellipse;whiteSpace=wrap;html=1;strokeColor=light-dark(#000000,#000000);fontColor=#FEFAE0;fillColor=light-dark(#F59E0B,#F59E0B);" vertex="1" parent="1">
          <mxGeometry x="343" y="790" width="140" height="70" as="geometry" />
        </mxCell>
        <mxCell id="IKd1nYxQMQXhkdpDBxoq-27" value="&lt;font style=&quot;color: light-dark(rgb(0, 0, 0), rgb(0, 0, 0));&quot;&gt;Make Custom Orders&lt;/font&gt;" style="ellipse;whiteSpace=wrap;html=1;strokeColor=light-dark(#000000,#000000);fontColor=#FEFAE0;fillColor=light-dark(#F59E0B,#F59E0B);" vertex="1" parent="1">
          <mxGeometry x="343" y="700" width="140" height="70" as="geometry" />
        </mxCell>
        <mxCell id="IKd1nYxQMQXhkdpDBxoq-28" value="&lt;font style=&quot;color: light-dark(rgb(0, 0, 0), rgb(0, 0, 0));&quot;&gt;Manage Products&lt;/font&gt;" style="ellipse;whiteSpace=wrap;html=1;strokeColor=light-dark(#000000,#000000);fontColor=#FEFAE0;fillColor=light-dark(#F59E0B,#F59E0B);" vertex="1" parent="1">
          <mxGeometry x="343" y="610" width="140" height="70" as="geometry" />
        </mxCell>
        <mxCell id="IKd1nYxQMQXhkdpDBxoq-29" value="&lt;font style=&quot;color: light-dark(rgb(0, 0, 0), rgb(0, 0, 0));&quot;&gt;View Bakers&lt;/font&gt;" style="ellipse;whiteSpace=wrap;html=1;strokeColor=light-dark(#000000,#000000);fontColor=#FEFAE0;fillColor=light-dark(#F59E0B,#F59E0B);" vertex="1" parent="1">
          <mxGeometry x="343" y="430" width="140" height="70" as="geometry" />
        </mxCell>
        <mxCell id="IKd1nYxQMQXhkdpDBxoq-30" value="&lt;font style=&quot;color: light-dark(rgb(0, 0, 0), rgb(0, 0, 0));&quot;&gt;View Products&lt;/font&gt;" style="ellipse;whiteSpace=wrap;html=1;strokeColor=light-dark(#000000,#000000);fontColor=#FEFAE0;fillColor=light-dark(#F59E0B,#F59E0B);" vertex="1" parent="1">
          <mxGeometry x="343" y="340" width="140" height="70" as="geometry" />
        </mxCell>
        <mxCell id="IKd1nYxQMQXhkdpDBxoq-31" value="&lt;font style=&quot;color: light-dark(rgb(0, 0, 0), rgb(0, 0, 0));&quot;&gt;Log In&lt;/font&gt;" style="ellipse;whiteSpace=wrap;html=1;strokeColor=light-dark(#000000,#000000);fontColor=#FEFAE0;fillColor=light-dark(#F59E0B,#F59E0B);" vertex="1" parent="1">
          <mxGeometry x="343" y="250" width="140" height="70" as="geometry" />
        </mxCell>
        <mxCell id="IKd1nYxQMQXhkdpDBxoq-32" value="&lt;font style=&quot;color: light-dark(rgb(0, 0, 0), rgb(0, 0, 0));&quot;&gt;Log Out&lt;/font&gt;" style="ellipse;whiteSpace=wrap;html=1;strokeColor=light-dark(#000000,#000000);fontColor=#FEFAE0;fillColor=light-dark(#F59E0B,#F59E0B);" vertex="1" parent="1">
          <mxGeometry x="343" y="880" width="140" height="70" as="geometry" />
        </mxCell>
        <mxCell id="IKd1nYxQMQXhkdpDBxoq-37" value="&lt;font style=&quot;color: light-dark(rgb(0, 0, 0), rgb(0, 0, 0));&quot;&gt;Admin&lt;/font&gt;" style="shape=umlActor;verticalLabelPosition=bottom;verticalAlign=top;html=1;strokeColor=light-dark(#000000,#000000);fontColor=#FEFAE0;fillColor=light-dark(#F59E0B,#F59E0B);" vertex="1" parent="1">
          <mxGeometry x="160" y="380" width="30" height="60" as="geometry" />
        </mxCell>
        <mxCell id="IKd1nYxQMQXhkdpDBxoq-38" value="&lt;font style=&quot;color: light-dark(rgb(0, 0, 0), rgb(0, 0, 0));&quot;&gt;User&lt;/font&gt;" style="shape=umlActor;verticalLabelPosition=bottom;verticalAlign=top;html=1;strokeColor=light-dark(#000000,#000000);fontColor=#FEFAE0;fillColor=light-dark(#F59E0B,#F59E0B);" vertex="1" parent="1">
          <mxGeometry x="620" y="660" width="30" height="60" as="geometry" />
        </mxCell>
        <mxCell id="IKd1nYxQMQXhkdpDBxoq-47" value="" style="edgeStyle=none;orthogonalLoop=1;jettySize=auto;html=1;rounded=0;strokeColor=light-dark(#000000,#000000);fontColor=#FEFAE0;fillColor=#BC6C25;entryX=-0.008;entryY=0.537;entryDx=0;entryDy=0;entryPerimeter=0;" edge="1" parent="1" source="IKd1nYxQMQXhkdpDBxoq-37" target="IKd1nYxQMQXhkdpDBxoq-24">
          <mxGeometry width="100" relative="1" as="geometry">
            <mxPoint x="210" y="390" as="sourcePoint" />
            <mxPoint x="340" y="195" as="targetPoint" />
            <Array as="points" />
          </mxGeometry>
        </mxCell>
        <mxCell id="IKd1nYxQMQXhkdpDBxoq-48" value="" style="edgeStyle=none;orthogonalLoop=1;jettySize=auto;html=1;rounded=0;strokeColor=light-dark(#000000,#000000);fontColor=#FEFAE0;fillColor=#BC6C25;entryX=-0.007;entryY=0.545;entryDx=0;entryDy=0;entryPerimeter=0;" edge="1" parent="1" target="IKd1nYxQMQXhkdpDBxoq-31">
          <mxGeometry width="100" relative="1" as="geometry">
            <mxPoint x="200" y="400" as="sourcePoint" />
            <mxPoint x="340" y="290" as="targetPoint" />
            <Array as="points" />
          </mxGeometry>
        </mxCell>
        <mxCell id="IKd1nYxQMQXhkdpDBxoq-49" value="" style="edgeStyle=none;orthogonalLoop=1;jettySize=auto;html=1;rounded=0;strokeColor=light-dark(#000000,#000000);fontColor=#FEFAE0;fillColor=#BC6C25;entryX=0.05;entryY=0.286;entryDx=0;entryDy=0;entryPerimeter=0;" edge="1" parent="1" target="IKd1nYxQMQXhkdpDBxoq-28">
          <mxGeometry width="100" relative="1" as="geometry">
            <mxPoint x="200" y="410" as="sourcePoint" />
            <mxPoint x="340" y="620" as="targetPoint" />
            <Array as="points" />
          </mxGeometry>
        </mxCell>
        <mxCell id="IKd1nYxQMQXhkdpDBxoq-50" value="" style="edgeStyle=none;orthogonalLoop=1;jettySize=auto;html=1;rounded=0;strokeColor=light-dark(#000000,#000000);fontColor=#FEFAE0;fillColor=#BC6C25;entryX=0.05;entryY=0.286;entryDx=0;entryDy=0;entryPerimeter=0;" edge="1" parent="1" target="IKd1nYxQMQXhkdpDBxoq-26">
          <mxGeometry width="100" relative="1" as="geometry">
            <mxPoint x="200" y="420" as="sourcePoint" />
            <mxPoint x="360" y="640" as="targetPoint" />
            <Array as="points" />
          </mxGeometry>
        </mxCell>
        <mxCell id="IKd1nYxQMQXhkdpDBxoq-51" value="" style="edgeStyle=none;orthogonalLoop=1;jettySize=auto;html=1;rounded=0;strokeColor=light-dark(#000000,#000000);fontColor=#FEFAE0;fillColor=#BC6C25;entryX=0.05;entryY=0.286;entryDx=0;entryDy=0;entryPerimeter=0;" edge="1" parent="1" target="IKd1nYxQMQXhkdpDBxoq-32">
          <mxGeometry width="100" relative="1" as="geometry">
            <mxPoint x="190" y="420" as="sourcePoint" />
            <mxPoint x="360" y="820" as="targetPoint" />
            <Array as="points" />
          </mxGeometry>
        </mxCell>
        <mxCell id="IKd1nYxQMQXhkdpDBxoq-52" value="" style="edgeStyle=none;orthogonalLoop=1;jettySize=auto;html=1;rounded=0;strokeColor=light-dark(#000000,#000000);fontColor=#FEFAE0;fillColor=#BC6C25;entryX=0.979;entryY=0.714;entryDx=0;entryDy=0;entryPerimeter=0;" edge="1" parent="1" target="IKd1nYxQMQXhkdpDBxoq-25">
          <mxGeometry width="100" relative="1" as="geometry">
            <mxPoint x="610" y="690" as="sourcePoint" />
            <mxPoint x="360" y="640" as="targetPoint" />
            <Array as="points" />
          </mxGeometry>
        </mxCell>
        <mxCell id="IKd1nYxQMQXhkdpDBxoq-53" value="" style="edgeStyle=none;orthogonalLoop=1;jettySize=auto;html=1;rounded=0;strokeColor=light-dark(#000000,#000000);fontColor=#FEFAE0;fillColor=#BC6C25;entryX=0.996;entryY=0.66;entryDx=0;entryDy=0;entryPerimeter=0;" edge="1" parent="1" target="IKd1nYxQMQXhkdpDBxoq-29">
          <mxGeometry width="100" relative="1" as="geometry">
            <mxPoint x="610" y="680" as="sourcePoint" />
            <mxPoint x="490" y="480" as="targetPoint" />
            <Array as="points" />
          </mxGeometry>
        </mxCell>
        <mxCell id="IKd1nYxQMQXhkdpDBxoq-54" value="" style="edgeStyle=none;orthogonalLoop=1;jettySize=auto;html=1;rounded=0;strokeColor=light-dark(#000000,#000000);fontColor=#FEFAE0;fillColor=#BC6C25;entryX=0.991;entryY=0.713;entryDx=0;entryDy=0;entryPerimeter=0;" edge="1" parent="1" target="IKd1nYxQMQXhkdpDBxoq-30">
          <mxGeometry width="100" relative="1" as="geometry">
            <mxPoint x="610" y="670" as="sourcePoint" />
            <mxPoint x="500" y="490" as="targetPoint" />
            <Array as="points" />
          </mxGeometry>
        </mxCell>
        <mxCell id="IKd1nYxQMQXhkdpDBxoq-55" value="" style="edgeStyle=none;orthogonalLoop=1;jettySize=auto;html=1;rounded=0;strokeColor=light-dark(#000000,#000000);fontColor=#FEFAE0;fillColor=#BC6C25;entryX=0.991;entryY=0.675;entryDx=0;entryDy=0;entryPerimeter=0;" edge="1" parent="1" target="IKd1nYxQMQXhkdpDBxoq-31">
          <mxGeometry width="100" relative="1" as="geometry">
            <mxPoint x="610" y="660" as="sourcePoint" />
            <mxPoint x="492" y="400" as="targetPoint" />
            <Array as="points" />
          </mxGeometry>
        </mxCell>
        <mxCell id="IKd1nYxQMQXhkdpDBxoq-56" value="" style="edgeStyle=none;orthogonalLoop=1;jettySize=auto;html=1;rounded=0;strokeColor=light-dark(#000000,#000000);fontColor=#FEFAE0;fillColor=#BC6C25;entryX=1;entryY=0.5;entryDx=0;entryDy=0;" edge="1" parent="1" target="IKd1nYxQMQXhkdpDBxoq-24">
          <mxGeometry width="100" relative="1" as="geometry">
            <mxPoint x="620" y="650" as="sourcePoint" />
            <mxPoint x="492" y="307" as="targetPoint" />
            <Array as="points" />
          </mxGeometry>
        </mxCell>
        <mxCell id="IKd1nYxQMQXhkdpDBxoq-57" value="" style="edgeStyle=none;orthogonalLoop=1;jettySize=auto;html=1;rounded=0;strokeColor=light-dark(#000000,#000000);fontColor=#FEFAE0;fillColor=#BC6C25;entryX=1;entryY=0.5;entryDx=0;entryDy=0;" edge="1" parent="1" target="IKd1nYxQMQXhkdpDBxoq-27">
          <mxGeometry width="100" relative="1" as="geometry">
            <mxPoint x="620" y="700" as="sourcePoint" />
            <mxPoint x="490" y="580" as="targetPoint" />
            <Array as="points" />
          </mxGeometry>
        </mxCell>
        <mxCell id="IKd1nYxQMQXhkdpDBxoq-58" value="" style="edgeStyle=none;orthogonalLoop=1;jettySize=auto;html=1;rounded=0;strokeColor=light-dark(#000000,#000000);fontColor=#FEFAE0;fillColor=#BC6C25;entryX=0.979;entryY=0.286;entryDx=0;entryDy=0;entryPerimeter=0;" edge="1" parent="1" source="IKd1nYxQMQXhkdpDBxoq-38" target="IKd1nYxQMQXhkdpDBxoq-32">
          <mxGeometry width="100" relative="1" as="geometry">
            <mxPoint x="630" y="710" as="sourcePoint" />
            <mxPoint x="493" y="745" as="targetPoint" />
            <Array as="points" />
          </mxGeometry>
        </mxCell>
        <mxCell id="IKd1nYxQMQXhkdpDBxoq-59" value="" style="swimlane;startSize=0;strokeColor=light-dark(#000000,#000000);fontColor=#FEFAE0;fillColor=light-dark(#000000,#FFFFFF);" vertex="1" parent="1">
          <mxGeometry x="310" y="120" width="210" height="870" as="geometry" />
        </mxCell>
      </root>
    </mxGraphModel>
  </diagram>
</mxfile>
